<?xml version="1.0" encoding="UTF-8"?>
<!DOCTYPE svg PUBLIC "-//W3C//DTD SVG 1.1//EN" "http://www.w3.org/Graphics/SVG/1.1/DTD/svg11.dtd">
<svg version="1.1" id="Layer_1" xmlns="http://www.w3.org/2000/svg" xmlns:xlink="http://www.w3.org/1999/xlink" x="0px" y="0px" width="16px" height="16px" viewBox="0 0 16 16" enable-background="new 0 0 16 16" xml:space="preserve">
  <g id="main">
    <g id="icon">
      <path d="M1.5,13.13L1.528,13.41L1.608,13.66L1.734,13.9L1.901,14.1L2.104,14.27L2.335,14.39L2.591,14.47L2.865,14.5L7,14.5L7,14.25L5.278,12.53L6.5,11.3L8.314,9.49L8.5,9.676L10.46,11.63L11.5,10.62L11.5,2.5L1.5,2.5zz" fill="#FFFFFF" opacity="0.5"/>
      <path d="M0,3L1,3L1,13.13L1.038,13.51L1.147,13.86L1.319,14.18L1.547,14.45L1.823,14.68L2.14,14.85L2.49,14.96L2.865,15L7,15L7,14.25L6.752,14L2.865,14L2.529,13.93L2.254,13.75L2.068,13.47L2,13.13L2,3L11,3L11,11.11L12,10.13L12,3L13,3L13,2L0,2zM4,12L5,12L5,5L4,5zM6,11.8L7,10.8L7,5L6,5zM8,9.804L8.314,9.49L9,10.18L9,5L8,5zz" fill="#6D6E71"/>
      <path d="M4.723,0.09316L4.347,0.3469L4.093,0.7229L4,1.183L4,2.5L5,2.5L5,1.183L5.054,1.054L5.183,1L7.817,1L7.946,1.054L8,1.183L8,2.5L9,2.5L9,1.183L8.907,0.7229L8.653,0.3469L8.277,0.09316L7.817,0L5.183,0zz" fill="#6D6E71"/>
    </g>
    <g id="overlay">
      <polygon points="6.9749,12.5259 8.314,11.1867 10.449,13.3218 14.6069,9.2577 15.946,10.5969 10.449,16" fill="#52B250" stroke-linejoin="miter"/>
    </g>
  </g>
</svg>
